<svg width="75" height="75" viewBox="0 0 75 75" fill="none" xmlns="http://www.w3.org/2000/svg">
<path fill-rule="evenodd" clip-rule="evenodd" d="M2.35527 3.37253C7.50733 38.6371 39.1489 55.7662 72.1812 59.6609C72.7484 59.7289 73.1563 60.2439 73.0883 60.8111C73.0203 61.3783 72.5054 61.7861 71.9382 61.7181C37.9806 57.7162 5.60181 39.9231 0.305984 3.67049C0.222343 3.10588 0.614456 2.58048 1.18168 2.49684C1.74629 2.41319 2.27162 2.80531 2.35527 3.37253Z" fill="black"/>
<path fill-rule="evenodd" clip-rule="evenodd" d="M71.4397 60.617C69.9707 59.5426 68.1122 58.2148 67.9057 58.0579C62.3093 53.8077 57.6721 48.917 53.5892 43.1794C53.2572 42.7142 53.367 42.0659 53.8323 41.7339C54.2976 41.402 54.9458 41.5118 55.2778 41.9771C59.2353 47.5421 63.7312 52.2864 69.1603 56.4086C69.4766 56.6491 73.6564 59.6315 74.4562 60.2981C74.7856 60.5699 74.8875 60.8261 74.9058 60.8888C75.0155 61.2182 74.9502 61.477 74.8613 61.6652C74.7594 61.8769 74.5059 62.1854 74.0145 62.3422C73.4995 62.5043 72.3546 62.5775 72.0671 62.6193C67.7305 63.2623 62.8346 63.6021 58.3779 64.8359C54.1276 66.0122 50.2721 68.004 47.7993 71.9954C47.4987 72.4816 46.8583 72.6306 46.3722 72.33C45.886 72.0294 45.7369 71.389 46.0375 70.9028C48.803 66.4408 53.0743 64.1536 57.8238 62.8388C62.2544 61.6129 67.1058 61.2417 71.4397 60.617Z" fill="black"/>
</svg>
