<svg id="buy" xmlns="http://www.w3.org/2000/svg" width="20" height="20" viewBox="0 0 20 20">
  <g id="Buy-2" data-name="Buy" transform="translate(0 0)">
    <path id="Buy-3" data-name="Buy" d="M15.161,18.455A1.515,1.515,0,1,1,16.674,20,1.532,1.532,0,0,1,15.161,18.455Zm-11.253,0A1.515,1.515,0,1,1,5.423,20,1.533,1.533,0,0,1,3.908,18.455Zm1.683-3.163A2.56,2.56,0,0,1,3.046,12.9L2.132,1.786.622,1.519A.765.765,0,0,1,.011.635.752.752,0,0,1,.877.01L2.959.379a.758.758,0,0,1,.618.69l.963,11.707a1.056,1.056,0,0,0,1.05.985H16.5a1.067,1.067,0,0,0,1.043-.921l.949-6.693a.606.606,0,0,0-.138-.482.582.582,0,0,0-.447-.208H7.164a.766.766,0,0,1,0-1.531H17.908a2.071,2.071,0,0,1,1.581.738,2.161,2.161,0,0,1,.489,1.7l-.95,6.693A2.583,2.583,0,0,1,16.5,15.292Zm6.535-6.062a.766.766,0,0,1,0-1.531H14.9a.766.766,0,0,1,0,1.531Z" fill="#fff"/>
  </g>
</svg>
