<svg width="50" height="50" viewBox="0 0 50 50" fill="none" xmlns="http://www.w3.org/2000/svg">
<path d="M47.625 14.8809C47.2726 14.5735 46.8367 14.3779 46.3728 14.3188C45.9089 14.2597 45.4379 14.3397 45.0196 14.5488L35.2129 19.4316L27.0254 5.83203C26.815 5.48306 26.5179 5.19439 26.1631 4.994C25.8082 4.79362 25.4076 4.68832 25.0001 4.68832C24.5925 4.68832 24.1919 4.79362 23.8371 4.994C23.4822 5.19439 23.1851 5.48306 22.9747 5.83203L14.7872 19.4375L4.98443 14.5547C4.56713 14.3474 4.09791 14.2681 3.63566 14.3265C3.17341 14.385 2.73871 14.5786 2.38613 14.8832C2.03355 15.1878 1.77879 15.5898 1.65381 16.0386C1.52884 16.4875 1.53921 16.9633 1.68365 17.4062L8.91021 39.5469C8.98287 39.7693 9.10456 39.9726 9.26629 40.1417C9.42803 40.3108 9.62568 40.4414 9.84465 40.5239C10.0636 40.6064 10.2983 40.6386 10.5314 40.6183C10.7645 40.5979 10.9901 40.5255 11.1915 40.4063C11.2403 40.377 16.2344 37.5 25.0001 37.5C33.7657 37.5 38.7598 40.377 38.8047 40.4043C39.0062 40.5247 39.2321 40.5981 39.4658 40.6192C39.6995 40.6402 39.9349 40.6084 40.1547 40.5261C40.3744 40.4437 40.5727 40.3129 40.735 40.1434C40.8972 39.9739 41.0192 39.77 41.0919 39.5469L48.3184 17.4121C48.467 16.969 48.4804 16.4917 48.3569 16.041C48.2335 15.5902 47.9787 15.1864 47.625 14.8809ZM38.6719 36.8809C36.3282 35.8867 31.6563 34.375 25.0001 34.375C18.3438 34.375 13.6719 35.8867 11.3282 36.8809L5.21685 18.1641L14.0196 22.5527C14.5524 22.8155 15.1643 22.8692 15.7348 22.7033C16.3052 22.5373 16.7929 22.1638 17.1016 21.6562L25.0001 8.52734L32.8985 21.6523C33.2072 22.1594 33.6945 22.5326 34.2645 22.6985C34.8345 22.8644 35.446 22.811 35.9786 22.5488L44.7833 18.1641L38.6719 36.8809Z" fill="white" stroke="white"/>
</svg>
