<svg width="9" height="16" viewBox="0 0 9 16" fill="none" xmlns="http://www.w3.org/2000/svg">
<path d="M8.6113 8.48642L1.7363 15.3614C1.67242 15.4253 1.59659 15.476 1.51314 15.5105C1.42968 15.5451 1.34023 15.5629 1.24989 15.5629C1.15956 15.5629 1.07011 15.5451 0.986653 15.5105C0.903195 15.476 0.827363 15.4253 0.763487 15.3614C0.699612 15.2975 0.648943 15.2217 0.614373 15.1383C0.579804 15.0548 0.562012 14.9654 0.562012 14.875C0.562012 14.7847 0.579804 14.6952 0.614373 14.6118C0.648943 14.5283 0.699612 14.4525 0.763487 14.3886L7.15294 8.00002L0.763487 1.61142C0.634484 1.48242 0.562012 1.30745 0.562012 1.12502C0.562012 0.942578 0.634484 0.767613 0.763487 0.63861C0.89249 0.509607 1.06746 0.437134 1.24989 0.437134C1.43233 0.437134 1.6073 0.509607 1.7363 0.63861L8.6113 7.51361C8.67522 7.57746 8.72593 7.65328 8.76053 7.73674C8.79513 7.82021 8.81293 7.90967 8.81293 8.00002C8.81293 8.09036 8.79513 8.17983 8.76053 8.26329C8.72593 8.34675 8.67522 8.42257 8.6113 8.48642Z" fill="white"/>
</svg>
