<svg width="48" height="35" viewBox="0 0 48 35" fill="none" xmlns="http://www.w3.org/2000/svg">
<path d="M46.8125 20.375C46.6483 20.4981 46.4615 20.5877 46.2628 20.6386C46.064 20.6895 45.8571 20.7008 45.654 20.6718C45.4509 20.6428 45.2555 20.574 45.0789 20.4695C44.9023 20.3649 44.7481 20.2267 44.625 20.0625C43.6832 18.7966 42.4574 17.7695 41.0462 17.0639C39.6349 16.3583 38.0778 15.9939 36.5 16C36.1927 16 35.8923 15.9094 35.6363 15.7395C35.3802 15.5696 35.18 15.328 35.0605 15.0449C34.9794 14.8527 34.9376 14.6461 34.9376 14.4375C34.9376 14.2289 34.9794 14.0223 35.0605 13.8301C35.18 13.547 35.3802 13.3054 35.6363 13.1355C35.8923 12.9656 36.1927 12.875 36.5 12.875C37.3767 12.8749 38.2358 12.629 38.9797 12.1651C39.7237 11.7013 40.3226 11.0381 40.7085 10.2509C41.0944 9.46366 41.2518 8.58402 41.1629 7.71184C41.0739 6.83966 40.7421 6.00991 40.2052 5.31684C39.6683 4.62377 38.9478 4.09516 38.1256 3.79105C37.3033 3.48694 36.4122 3.41952 35.5536 3.59645C34.6949 3.77338 33.9031 4.18757 33.268 4.79197C32.6329 5.39637 32.1801 6.16676 31.9609 7.01562C31.9096 7.2144 31.8197 7.40113 31.6962 7.56515C31.5728 7.72916 31.4182 7.86726 31.2414 7.97154C31.0645 8.07583 30.8689 8.14426 30.6656 8.17294C30.4623 8.20161 30.2554 8.18997 30.0566 8.13867C29.8578 8.08737 29.6711 7.99743 29.5071 7.87396C29.3431 7.7505 29.205 7.59594 29.1007 7.41911C28.9964 7.24228 28.928 7.04664 28.8993 6.84337C28.8706 6.64009 28.8823 6.43315 28.9336 6.23437C29.2378 5.05725 29.8125 3.96738 30.6121 3.05147C31.4116 2.13556 32.4139 1.41889 33.5391 0.958497C34.6644 0.498102 35.8816 0.306684 37.0938 0.399474C38.3061 0.492264 39.4799 0.866701 40.522 1.49299C41.5641 2.11928 42.4456 2.98014 43.0964 4.00707C43.7473 5.03399 44.1494 6.19865 44.2709 7.40835C44.3925 8.61806 44.23 9.83943 43.7964 10.9753C43.3628 12.1111 42.6701 13.1301 41.7734 13.9512C43.898 14.8711 45.745 16.3309 47.1308 18.1855C47.2539 18.3501 47.3434 18.5374 47.394 18.7365C47.4446 18.9357 47.4555 19.1429 47.4259 19.3463C47.3963 19.5497 47.3269 19.7453 47.2217 19.9218C47.1164 20.0983 46.9774 20.2523 46.8125 20.375ZM36.289 32.4062C36.4021 32.5841 36.478 32.783 36.5122 32.9909C36.5464 33.1988 36.5382 33.4115 36.4881 33.6162C36.4379 33.8209 36.3469 34.0133 36.2205 34.1819C36.094 34.3505 35.9348 34.4918 35.7524 34.5973C35.5699 34.7027 35.368 34.7702 35.1588 34.7956C34.9496 34.821 34.7375 34.8038 34.5351 34.7451C34.3327 34.6864 34.1443 34.5874 33.9812 34.4539C33.818 34.3205 33.6836 34.1555 33.5859 33.9687C32.6016 32.3021 31.1998 30.9209 29.5188 29.9613C27.8377 29.0018 25.9356 28.4971 24 28.4971C22.0644 28.4971 20.1622 29.0018 18.4812 29.9613C16.8001 30.9209 15.3983 32.3021 14.414 33.9687C14.3164 34.1555 14.1819 34.3205 14.0188 34.4539C13.8557 34.5874 13.6673 34.6864 13.4649 34.7451C13.2625 34.8038 13.0503 34.821 12.8411 34.7956C12.6319 34.7702 12.43 34.7027 12.2476 34.5973C12.0651 34.4918 11.9059 34.3505 11.7795 34.1819C11.6531 34.0133 11.562 33.8209 11.5119 33.6162C11.4618 33.4115 11.4536 33.1988 11.4878 32.9909C11.522 32.783 11.5979 32.5841 11.7109 32.4062C13.2258 29.8035 15.5355 27.7552 18.3008 26.5625C16.7448 25.3712 15.6012 23.7222 15.0308 21.8473C14.4605 19.9725 14.492 17.966 15.1209 16.11C15.7498 14.2539 16.9446 12.6417 18.5372 11.4998C20.1299 10.3579 22.0403 9.74374 24 9.74374C25.9597 9.74374 27.8701 10.3579 29.4627 11.4998C31.0554 12.6417 32.2501 14.2539 32.8791 16.11C33.508 17.966 33.5395 19.9725 32.9691 21.8473C32.3988 23.7222 31.2552 25.3712 29.6992 26.5625C32.4644 27.7552 34.7742 29.8035 36.289 32.4062ZM24 25.375C25.2361 25.375 26.4445 25.0084 27.4723 24.3217C28.5001 23.6349 29.3012 22.6588 29.7742 21.5168C30.2473 20.3747 30.371 19.1181 30.1299 17.9057C29.8887 16.6933 29.2935 15.5797 28.4194 14.7056C27.5453 13.8315 26.4317 13.2362 25.2193 12.9951C24.0069 12.7539 22.7502 12.8777 21.6082 13.3508C20.4662 13.8238 19.4901 14.6249 18.8033 15.6527C18.1165 16.6805 17.75 17.8889 17.75 19.125C17.75 20.7826 18.4085 22.3723 19.5806 23.5444C20.7527 24.7165 22.3424 25.375 24 25.375ZM13.0625 14.4375C13.0625 14.0231 12.8979 13.6257 12.6048 13.3326C12.3118 13.0396 11.9144 12.875 11.5 12.875C10.6233 12.8749 9.76417 12.629 9.02023 12.1651C8.2763 11.7013 7.67736 11.0381 7.29145 10.2509C6.90554 9.46366 6.74813 8.58402 6.83709 7.71184C6.92605 6.83966 7.25782 6.00991 7.79472 5.31684C8.33162 4.62377 9.05213 4.09516 9.8744 3.79105C10.6967 3.48694 11.5877 3.41952 12.4464 3.59645C13.3051 3.77338 14.0969 4.18757 14.732 4.79197C15.367 5.39637 15.8199 6.16676 16.039 7.01562C16.1426 7.41708 16.4015 7.76093 16.7586 7.97154C17.1157 8.18215 17.5419 8.24227 17.9433 8.13867C18.3448 8.03507 18.6886 7.77624 18.8993 7.41911C19.1099 7.06199 19.17 6.63583 19.0664 6.23437C18.7622 5.05725 18.1874 3.96738 17.3879 3.05147C16.5884 2.13556 15.5861 1.41889 14.4608 0.958497C13.3356 0.498102 12.1184 0.306684 10.9061 0.399474C9.6939 0.492264 8.52004 0.866701 7.47796 1.49299C6.43589 2.11928 5.55437 2.98014 4.90354 4.00707C4.25271 5.03399 3.85054 6.19865 3.72902 7.40835C3.60751 8.61806 3.77 9.83943 4.20358 10.9753C4.63716 12.1111 5.32985 13.1301 6.22654 13.9512C4.10405 14.872 2.25919 16.3317 0.874982 18.1855C0.626083 18.5171 0.519074 18.9339 0.577496 19.3443C0.635917 19.7547 0.854985 20.1251 1.18651 20.374C1.51803 20.6229 1.93484 20.7299 2.34526 20.6715C2.75568 20.6131 3.12608 20.394 3.37498 20.0625C4.31675 18.7966 5.54259 17.7695 6.95381 17.0639C8.36503 16.3583 9.9222 15.9939 11.5 16C11.9144 16 12.3118 15.8354 12.6048 15.5424C12.8979 15.2493 13.0625 14.8519 13.0625 14.4375Z" fill="white"/>
</svg>
