<svg width="20" height="21" viewBox="0 0 20 21" fill="none" xmlns="http://www.w3.org/2000/svg">
<path d="M18.1563 9.4332L6.9 2.54727C6.71022 2.43106 6.49287 2.36762 6.27037 2.3635C6.04788 2.35938 5.82832 2.41472 5.63438 2.52383C5.44227 2.63124 5.28225 2.78787 5.17075 2.97763C5.05926 3.16739 5.00032 3.38343 5 3.60351V17.3738C5.00145 17.704 5.13393 18.02 5.36833 18.2525C5.60273 18.485 5.91986 18.6149 6.25 18.6137C6.48043 18.6136 6.70639 18.5501 6.90313 18.4301L18.1563 11.5441C18.3371 11.4339 18.4866 11.279 18.5904 11.0943C18.6941 10.9096 18.7486 10.7013 18.7486 10.4895C18.7486 10.2776 18.6941 10.0693 18.5904 9.88464C18.4866 9.69994 18.3371 9.54502 18.1563 9.43476V9.4332ZM6.25 17.359V3.61367L17.4867 10.4887L6.25 17.359Z" fill="white"/>
</svg>
