<svg width="9" height="16" viewBox="0 0 9 16" fill="none" xmlns="http://www.w3.org/2000/svg">
<path d="M0.3887 8.48642L7.2637 15.3614C7.32758 15.4253 7.40341 15.476 7.48686 15.5105C7.57032 15.5451 7.65977 15.5629 7.75011 15.5629C7.84044 15.5629 7.92989 15.5451 8.01335 15.5105C8.09681 15.476 8.17264 15.4253 8.23651 15.3614C8.30039 15.2975 8.35106 15.2217 8.38563 15.1383C8.4202 15.0548 8.43799 14.9654 8.43799 14.875C8.43799 14.7847 8.4202 14.6952 8.38563 14.6118C8.35106 14.5283 8.30039 14.4525 8.23651 14.3886L1.84706 8.00002L8.23651 1.61142C8.36552 1.48242 8.43799 1.30745 8.43799 1.12502C8.43799 0.942578 8.36552 0.767613 8.23651 0.63861C8.10751 0.509607 7.93254 0.437134 7.75011 0.437134C7.56767 0.437134 7.3927 0.509607 7.2637 0.63861L0.3887 7.51361C0.324779 7.57746 0.274069 7.65328 0.23947 7.73674C0.204873 7.82021 0.187066 7.90967 0.187066 8.00002C0.187066 8.09036 0.204873 8.17983 0.23947 8.26329C0.274069 8.34675 0.324779 8.42257 0.3887 8.48642Z" fill="white"/>
</svg>
