<svg width="32" height="33" viewBox="0 0 32 33" fill="none" xmlns="http://www.w3.org/2000/svg">
<path d="M12.5 7.48877H5C4.46957 7.48877 3.96086 7.69948 3.58579 8.07456C3.21071 8.44963 3 8.95834 3 9.48877V17.4888C3 18.0192 3.21071 18.5279 3.58579 18.903C3.96086 19.2781 4.46957 19.4888 5 19.4888H12.5V20.4888C12.5 21.5496 12.0786 22.567 11.3284 23.3172C10.5783 24.0673 9.56087 24.4888 8.5 24.4888C8.23478 24.4888 7.98043 24.5941 7.79289 24.7817C7.60536 24.9692 7.5 25.2236 7.5 25.4888C7.5 25.754 7.60536 26.0083 7.79289 26.1959C7.98043 26.3834 8.23478 26.4888 8.5 26.4888C10.0908 26.4871 11.616 25.8544 12.7408 24.7296C13.8657 23.6047 14.4983 22.0796 14.5 20.4888V9.48877C14.5 8.95834 14.2893 8.44963 13.9142 8.07456C13.5391 7.69948 13.0304 7.48877 12.5 7.48877ZM12.5 17.4888H5V9.48877H12.5V17.4888ZM27 7.48877H19.5C18.9696 7.48877 18.4609 7.69948 18.0858 8.07456C17.7107 8.44963 17.5 8.95834 17.5 9.48877V17.4888C17.5 18.0192 17.7107 18.5279 18.0858 18.903C18.4609 19.2781 18.9696 19.4888 19.5 19.4888H27V20.4888C27 21.5496 26.5786 22.567 25.8284 23.3172C25.0783 24.0673 24.0609 24.4888 23 24.4888C22.7348 24.4888 22.4804 24.5941 22.2929 24.7817C22.1054 24.9692 22 25.2236 22 25.4888C22 25.754 22.1054 26.0083 22.2929 26.1959C22.4804 26.3834 22.7348 26.4888 23 26.4888C24.5908 26.4871 26.116 25.8544 27.2408 24.7296C28.3657 23.6047 28.9983 22.0796 29 20.4888V9.48877C29 8.95834 28.7893 8.44963 28.4142 8.07456C28.0391 7.69948 27.5304 7.48877 27 7.48877ZM27 17.4888H19.5V9.48877H27V17.4888Z" fill="#070604"/>
</svg>
